<svg xmlns="http://www.w3.org/2000/svg" xml:space="preserve" style="enable-background:new 0 0 850.4 283.5" viewBox="0 0 850.4 283.5"><path d="M740.6 201.7c-5.5-8-8.2-19.7-8.2-35 0-15.1 2.8-26.7 8.4-34.6 5.6-7.9 14-11.9 25.4-11.9 11.3 0 19.8 4 25.4 11.9 5.6 7.9 8.4 19.5 8.4 34.6 0 15.1-2.8 26.8-8.4 34.9-5.6 8.1-14 12.2-25.4 12.2-11.6-.1-20.2-4.1-25.6-12.1m56.4 38.4c9.3-3.6 17.2-8.8 23.7-15.6 6.5-6.8 11.5-15.1 15-24.8 3.5-9.7 5.2-20.8 5.2-33.1 0-12.1-1.7-23-5.1-32.8-3.4-9.7-8.4-18-14.9-24.7-6.5-6.7-14.4-11.9-23.7-15.5-9.3-3.6-19.7-5.4-31.2-5.4-11.3 0-21.7 1.8-30.9 5.4-9.3 3.6-17.2 8.8-23.7 15.5-6.5 6.7-11.5 14.9-15 24.7-3.5 9.7-5.2 20.7-5.2 32.8 0 25.3 6.5 44.8 19.6 58.4 13.1 13.6 31.5 20.4 55.3 20.4 11.3.1 21.7-1.7 30.9-5.3m-337.6.9h39.7v-89.1c0-4.3.8-8.4 2.4-12.1 1.6-3.7 3.7-6.9 6.4-9.5 3.2-3.2 6.5-5.5 9.8-6.8 3.3-1.3 7-2 10.9-2 2.5 0 4.8.4 7.1 1.1 2.3.8 4.2 2.1 5.8 4 1.6 1.9 2.9 4.5 3.8 7.8.9 3.3 1.4 7.6 1.4 12.9V241h39.7v-90.8c0-3.8.8-7.4 2.4-10.8 1.6-3.4 3.7-6.4 6.4-9.1 3.2-3.2 6.5-5.5 9.8-6.8 3.3-1.3 7-2 10.9-2 2.5 0 4.8.4 7.1 1.1 2.3.8 4.2 2.1 5.8 4 1.6 1.9 2.9 4.5 3.8 7.8.9 3.3 1.4 7.6 1.4 12.9V241h39.7v-99c0-18.9-3.8-32.6-11.5-41-7.7-8.4-19.2-12.6-34.5-12.6-9.1 0-17.4 2-25 6-7.6 4-14.8 10.5-21.6 19.6-2.8-8.3-7.7-14.7-14.5-19-6.8-4.3-15.6-6.5-26.4-6.5-8.1 0-15.9 2-23.3 6s-13.8 10.1-19.3 18.4v-20H459V241zm-60.7-58.5c0 6.1-1.1 11.1-3.4 15.2s-5.2 7.4-8.8 10.1c-6.4 4.7-14.8 7.1-25 7.1-6.1 0-10.8-1.4-14.2-4.3-3.4-2.8-5.1-6.7-5.1-11.6 0-3.2.5-6.1 1.4-8.8.9-2.6 2.8-5 5.5-7s6.7-3.6 11.8-5c5.1-1.3 11.8-2.2 20.1-2.6l17.6-.9v7.8zm.8 58.5H437v-93.6c0-9.1-1.1-17.3-3.3-24.5-2.2-7.3-5.7-13.5-10.5-18.6-4.8-5.1-11.2-9-19.2-11.8-7.9-2.7-17.6-4.1-28.9-4.1-18.5 0-33.3 3.5-44.3 10.4s-17.8 18.1-20.4 33.6l36.3 3.4c2.3-11.9 11.3-17.9 27-17.9 6.8 0 12.7 1.7 17.7 5.1 5 3.4 7.5 9.6 7.5 18.7v7.4l-19 .9c-9.5.4-18.8 1.3-27.9 2.8-9.2 1.5-17.4 4.1-24.8 7.7-7.4 3.6-13.3 8.6-17.9 15-4.5 6.4-6.8 14.8-6.8 25 0 7.8 1.3 14.4 4 20 2.6 5.6 6.2 10.2 10.6 13.8 4.4 3.6 9.6 6.2 15.6 7.9 6 1.7 12.2 2.6 18.9 2.6 11.5 0 20.9-2.1 28.2-6.2 7.3-4.2 13.9-9.5 19.7-16.2V241zM191 150.5c.2-4.5 1-8.7 2.6-12.6 1.5-3.9 3.6-7.3 6.4-10.2 2.7-2.9 6.1-5.2 10.1-7 4-1.7 8.6-2.6 13.9-2.6 10.6 0 18.4 2.8 23.4 8.5s7.5 13.6 7.5 23.8H191zm61.8 44.2c-2.8 13.2-12.1 19.9-27.8 19.9-11.3 0-19.9-3.4-25.5-10.1-5.7-6.7-8.7-16-9.1-27.9h102.7v-15.9c0-22.1-5.7-39.7-17.2-52.8-11.4-13.1-28.5-19.6-51.2-19.6-11 0-21 1.8-30.1 5.2-9.1 3.5-16.9 8.7-23.4 15.5-6.5 6.8-11.6 15.1-15.2 24.8-3.6 9.7-5.4 20.9-5.4 33.3 0 25 6.2 44.3 18.6 57.9 12.4 13.6 30.9 20.4 55.5 20.4 20.4 0 36-4.3 46.7-12.9 10.7-8.6 17.3-21.2 20-37.9h-38.6zM8.5 241h133.6l4.5-36.3H50.8V38.4H8.5V241z"/></svg>