<?xml version="1.0" encoding="utf-8"?>
<!-- Generator: Adobe Illustrator 27.5.0, SVG Export Plug-In . SVG Version: 6.00 Build 0)  -->
<svg version="1.1" id="Calque_1" xmlns="http://www.w3.org/2000/svg" xmlns:xlink="http://www.w3.org/1999/xlink" x="0px" y="0px"
	 viewBox="0 0 832.4 210.5" style="enable-background:new 0 0 832.4 210.5;" xml:space="preserve">
<g>
	<g>
		<path d="M66.1,100.4H31.7l-7.3,24.8H0L38.9,3h19.5l38.9,122.2H72.9L66.1,100.4z M60.7,80.9L49.3,39.7L37.8,80.9H60.7z"/>
		<path d="M196.3,111.5c-5.7,8-16.4,15.3-30.5,15.3c-24.8,0-37.8-14.9-37.8-43.9V24H89V3.4h61.5v81.7c0,14.5,5.7,21,14.9,21
			c6.1,0,9.9-2.7,13-6.9L196.3,111.5z"/>
		<path d="M231,63v28.6c0,15.7,17.6,17.2,27.9,11.8l8.4,17.2c-5.7,3.8-12.2,6.1-24.4,6.1c-21.8,0-34-16-34-36.3V63h-22.1V42h22.1
			v-29L231,6.1v36.3h36.3V63H231z"/>
		<path d="M361.2,92h-56.5c2.3,8,8.8,13.7,19.5,13.7c7.6,0,14.1-3.8,17.9-7.6l14.5,13.4c-6.5,9.2-19.9,15.3-32.5,15.3
			c-26,0-42.4-19.1-42.4-43.1s15.3-43.1,41.6-43.1c15.3,0,38.9,9.2,38.9,41.6C362,85.5,361.6,88.5,361.2,92z M304.3,75.6h35.5
			c-0.8-6.9-6.5-13.7-17.2-13.7C312.3,61.4,306.6,67.2,304.3,75.6z"/>
		<path d="M455.1,57.6l-20.2,12.6c-3.1-5.7-6.9-8-12.2-8c-9.9,0-17.6,13.4-17.6,29v34H383V42.3h22.1v14.9
			c4.2-9.5,13.7-16.4,24.4-16.4C441,40.8,449.4,46.9,455.1,57.6z"/>
		<path d="M489.5,42.3v-4.2c0-20.2,12.2-36.3,34-36.3c12.2,0,18.7,2.3,24.4,6.1l-8.4,17.2c-9.9-5.3-27.9-3.8-27.9,11.8v5h36.3v21
			h-36.3v62.6h-22.1V63H470V42h19.5L489.5,42.3L489.5,42.3z"/>
		<path d="M641.9,84c0,23.7-18.3,43.1-41.6,43.1c-24.8,0-41.6-19.1-41.6-43.1s16-43.1,41.6-43.1C623.5,40.8,641.9,59.9,641.9,84z
			 M619.7,84c0-12.2-8.4-22.1-19.5-22.1s-19.5,9.9-19.5,22.1s8.4,22.1,19.5,22.1S619.7,96.2,619.7,84z"/>
		<path d="M737.3,84c0,23.7-18.3,43.1-41.6,43.1c-24.8,0-41.6-19.1-41.6-43.1s16-43.1,41.6-43.1C719.4,40.8,737.3,59.9,737.3,84z
			 M715.2,84c0-12.2-8.4-22.1-19.5-22.1s-19.5,9.9-19.5,22.1s8.4,22.1,19.5,22.1S715.2,96.2,715.2,84z"/>
		<path d="M832.4,3.4v122.2h-22.1V116c-4.6,6.5-13,11.1-22.9,11.1c-21.8,0-38.2-18.3-38.2-43.1s16.4-43.1,38.2-43.1
			c9.9,0,18.3,4.6,22.9,10.7V3.4H832.4z M810.3,84c0-12.2-8.8-22.1-19.5-22.1s-19.5,9.9-19.5,22.1s8.8,22.1,19.5,22.1
			S810.3,96.2,810.3,84z"/>
		<g>
			<path d="M90.1,49.2c0-7.6,6.1-13.7,13.7-13.7s13.7,6.1,13.7,13.7S111.9,63,103.9,63C96.2,63,90.1,57.2,90.1,49.2z"/>
		</g>
	</g>
	<g>
		<path d="M61.9,189c-1.9,2.7-5.3,5-10.3,5c-8.4,0-12.6-5-12.6-14.5v-19.9h-7.3v-6.9h14.9v27.1c0,5,1.9,7.3,5,7.3
			c1.9,0,3.4-0.8,4.2-2.3L61.9,189z"/>
		<path d="M77.9,152.7h7.3l-2.7,13h-4.6V152.7z"/>
		<path d="M123.7,193.6l-0.4-3.4c-1.9,2.3-6.1,3.8-9.5,3.8c-6.5,0-9.9-4.2-9.9-9.2c0-7.3,9.2-11.1,18.3-8c-0.4-3.4-1.9-5-6.1-5
			c-2.7,0-5,0.8-6.5,1.5l-2.7-5.3c2.3-1.5,5.3-3.1,10.3-3.1c6.9,0,12.6,3.8,12.6,14.1v14.1L123.7,193.6L123.7,193.6z M111.1,184.8
			c0,2.3,1.9,3.4,4.6,3.4c2.7,0,5.7-2.3,6.5-6.1C116.5,179.8,111.1,181.3,111.1,184.8z"/>
		<path d="M167.6,189c-1.9,2.7-5.3,5-10.3,5c-8.4,0-12.6-5-12.6-14.5v-19.9h-7.3v-6.9h14.9v27.1c0,5,1.9,7.3,5,7.3
			c1.9,0,3.4-0.8,4.2-2.3L167.6,189z"/>
		<path d="M200.5,186.7v6.9h-24.1v-6.9h8.4v-13.7h-7.3v-6.9h14.9v21L200.5,186.7L200.5,186.7z M184,156.1c0-2.7,1.9-4.6,4.6-4.6
			s4.6,1.9,4.6,4.6c0,2.7-1.9,4.6-4.6,4.6S184,158.8,184,156.1z"/>
		<path d="M238.6,177.1v16.4h-7.3v-16.4c0-4.6-1.1-5-2.3-5c-1.1,0-2.3,0.8-2.3,6.1v15.3h-7.3v-16.4c0-4.6-0.8-5-1.9-5
			s-2.7,0.8-2.7,6.1v15.3h-7.3v-27.9h7.3v3.1c1.1-2.3,2.7-3.4,5-3.4c2.7,0,4.6,1.9,5.3,3.8c1.1-2.3,3.1-3.8,6.1-3.8
			C236,165.3,238.6,168.3,238.6,177.1z"/>
		<path d="M271.5,182.5h-19.1c0.8,2.7,3.1,4.6,6.5,4.6c2.7,0,4.6-1.1,6.1-2.7l5,4.6c-2.3,3.1-6.5,5-10.7,5
			c-8.8,0-14.1-6.5-14.1-14.5s5-14.5,13.7-14.5c5,0,13,3.1,13,13.7C271.9,180.2,271.5,181.3,271.5,182.5z M252.4,176.7h11.8
			c-0.4-2.3-2.3-4.6-5.7-4.6C255.1,172.2,253.2,174.1,252.4,176.7z"/>
		<path d="M306.2,177.5v15.7H299v-15.7c0-4.6-2.7-5.7-5-5.7s-5,1.9-5,6.5v14.9h-8v-27.9h7.3v3.1c1.1-1.5,3.4-3.4,6.9-3.4
			C301.3,165.3,306.2,169.1,306.2,177.5z"/>
		<path d="M328.8,172.5v9.5c0,5.3,5.7,5.7,9.2,3.8l2.7,5.7c-1.9,1.1-4.2,1.9-8,1.9c-7.3,0-11.5-5.3-11.5-12.2v-9.2h-6.5v-6.9h6.5
			v-9.9l7.3-2.3v12.2h12.2v6.9L328.8,172.5L328.8,172.5z"/>
		<path d="M370.8,193.6l-0.4-3.4c-1.9,2.3-6.1,3.8-9.5,3.8c-6.5,0-9.9-4.2-9.9-9.2c0-7.3,9.2-11.1,18.3-8c-0.4-3.4-1.9-5-5.7-5
			c-2.7,0-5,0.8-6.5,1.5l-2.7-5.3c2.3-1.5,5.3-3.1,10.3-3.1c6.9,0,12.6,3.8,12.6,14.1v14.1L370.8,193.6L370.8,193.6z M358.2,184.8
			c0,2.3,1.9,3.4,4.6,3.4c2.7,0,5.7-2.3,6.5-6.1C363.5,179.8,358.2,181.3,358.2,184.8z"/>
		<path d="M399.4,172.5v9.5c0,5.3,5.7,5.7,9.2,3.8l2.7,5.7c-1.9,1.1-4.2,1.9-8,1.9c-7.3,0-11.5-5.3-11.5-12.2v-9.2h-6.5v-6.9h6.5
			v-9.9l7.3-2.3v12.2h12.2v6.9L399.4,172.5L399.4,172.5z"/>
		<path d="M447.9,186.7v6.9h-24.1v-6.9h8.4v-13.7H425v-6.9h14.9v21L447.9,186.7L447.9,186.7z M431.1,156.1c0-2.7,1.9-4.6,4.6-4.6
			c2.7,0,4.6,1.9,4.6,4.6c0,2.7-1.9,4.6-4.6,4.6C433,161.1,431.1,158.8,431.1,156.1z"/>
		<path d="M484.2,179.4c0,8-6.1,14.5-13.7,14.5c-8.4,0-13.7-6.5-13.7-14.5s5.3-14.5,13.7-14.5C478.1,165.3,484.2,171.4,484.2,179.4z
			 M476.5,179.4c0-4.2-2.7-7.3-6.5-7.3c-3.8,0-6.5,3.4-6.5,7.3c0,3.8,2.7,7.3,6.5,7.3C473.9,187.1,476.5,183.6,476.5,179.4z"/>
		<path d="M517.8,177.5v15.7h-7.3v-15.7c0-4.6-2.7-5.7-5-5.7c-2.3,0-5,1.9-5,6.5v14.9h-7.3v-27.9h7.3v3.1c1.1-1.5,3.4-3.4,6.9-3.4
			C513.2,165.3,517.8,169.1,517.8,177.5z"/>
		<path d="M589.2,182.5h-19.1c0.8,2.7,3.1,4.6,6.5,4.6c2.7,0,4.6-1.1,6.1-2.7l5,4.6c-2.3,3.1-6.5,5-10.7,5
			c-8.8,0-14.1-6.5-14.1-14.5s5-14.5,13.7-14.5c5,0,13,3.1,13,13.7C589.6,180.2,589.2,181.3,589.2,182.5z M570.1,176.7h11.8
			c-0.4-2.3-2.3-4.6-5.7-4.6C572.8,172.2,570.8,174.1,570.1,176.7z"/>
		<path d="M623.9,177.5v15.7h-7.3v-15.7c0-4.6-2.7-5.7-5-5.7c-2.3,0-5,1.9-5,6.5v14.9h-7.3v-27.9h7.3v3.1c1.1-1.5,3.4-3.4,6.9-3.4
			C619,165.3,623.9,169.1,623.9,177.5z"/>
		<path d="M660.2,198.1c0,6.5-5.7,10.7-13.7,10.7c-8.8,0-13.7-4.2-13.7-10.7c0-3.8,1.9-6.5,4.2-8c-0.8-1.1-1.5-5,0.8-8
			c-1.9-1.9-2.7-4.2-2.7-6.9c0-5.7,4.6-10.3,11.5-10.3c2.3,0,4.6,0.8,6.5,1.5l3.8-3.4l4.2,4.6l-3.8,3.4c0.8,1.1,0.8,2.7,0.8,3.8
			c0,5.7-5,9.9-11.5,9.9c-1.1,0-2.3,0-3.1-0.4c-0.4,1.1,0,2.7,4.2,3.1C654.8,188.2,660.2,191.3,660.2,198.1z M652.6,198.1
			c0-2.3-1.9-3.4-5.7-3.4c-1.9,0-4.2,0-5-0.4c-1.5,0.8-2.3,1.9-2.3,3.4c0,2.3,1.9,4.2,6.5,4.2C650.3,202,652.6,200,652.6,198.1z
			 M641.9,175.2c0,1.9,1.9,3.4,4.2,3.4s4.2-1.5,4.2-3.4s-1.9-3.4-4.2-3.4C643.8,172.2,641.9,173.7,641.9,175.2z"/>
		<path d="M688.4,193.6l-0.4-3.4c-1.9,2.3-6.1,3.8-9.5,3.8c-6.5,0-9.9-4.2-9.9-9.2c0-7.3,9.2-11.1,18.3-8c-0.4-3.4-1.9-5-5.7-5
			c-2.7,0-5,0.8-6.5,1.5L672,168c2.3-1.5,5.3-3.1,10.3-3.1c6.9,0,12.6,3.8,12.6,14.1v14.1L688.4,193.6L688.4,193.6z M675.8,184.8
			c0,2.3,1.9,3.4,4.6,3.4c2.7,0,5.7-2.3,6.5-6.1C681.2,179.8,675.8,181.3,675.8,184.8z"/>
		<path d="M730.5,198.1c0,6.5-5.7,10.7-13.7,10.7c-8.8,0-13.7-4.2-13.7-10.7c0-3.8,1.9-6.5,4.2-8c-0.8-1.1-1.5-5,0.8-8
			c-1.9-1.9-2.7-4.2-2.7-6.9c0-5.7,4.6-10.3,11.5-10.3c2.3,0,4.6,0.8,6.5,1.5l3.8-3.4l4.2,4.6l-3.8,3.4c0.8,1.1,0.8,2.7,0.8,3.8
			c0,5.7-5,9.9-11.5,9.9c-1.1,0-2.3,0-3.1-0.4c-0.4,1.1,0,2.7,4.2,3.1C725.5,188.2,730.5,191.3,730.5,198.1z M723.2,198.1
			c0-2.3-1.9-3.4-5.7-3.4c-1.9,0-4.2,0-5-0.4c-1.5,0.8-2.3,1.9-2.3,3.4c0,2.3,1.9,4.2,6.5,4.2C720.9,202,723.2,200,723.2,198.1z
			 M712.5,175.2c0,1.9,1.9,3.4,4.2,3.4c2.3,0,4.2-1.5,4.2-3.4s-1.9-3.4-4.2-3.4C714.4,171.8,712.5,173.7,712.5,175.2z"/>
		<path d="M765.6,182.5h-19.1c0.8,2.7,3.1,4.6,6.5,4.6c2.7,0,4.6-1.1,6.1-2.7l5,4.6c-2.3,3.1-6.5,5-10.7,5
			c-8.8,0-14.1-6.5-14.1-14.5s5-14.5,13.7-14.5c5,0,13,3.1,13,13.7C766,180.2,766,181.3,765.6,182.5z M746.5,176.7h11.8
			c-0.4-2.3-2.3-4.6-5.7-4.6C749.2,172.2,747.3,174.1,746.5,176.7z M753.4,161.9h-4.6l3.8-9.2h6.5L753.4,161.9z"/>
		<path d="M801.1,182.5H782c0.8,2.7,3.1,4.6,6.5,4.6c2.7,0,4.6-1.1,6.1-2.7l5,4.6c-2.3,3.1-6.5,5-10.7,5c-8.8,0-14.1-6.5-14.1-14.5
			s5-14.5,13.7-14.5c5,0,13,3.1,13,13.7C801.1,180.2,801.1,181.3,801.1,182.5z M782,176.7h11.8c-0.4-2.3-2.3-4.6-5.7-4.6
			C784.7,172.2,782.8,174.1,782,176.7z"/>
	</g>
</g>
</svg>
