<?xml version="1.0" encoding="utf-8"?>
<!-- Generator: Adobe Illustrator 27.5.0, SVG Export Plug-In . SVG Version: 6.00 Build 0)  -->
<svg version="1.1" id="Calque_2_00000114074084481439378250000008703349505056958111_"
	 xmlns="http://www.w3.org/2000/svg" xmlns:xlink="http://www.w3.org/1999/xlink" x="0px" y="0px" viewBox="0 0 15.4 29.7"
	 style="enable-background:new 0 0 15.4 29.7;" xml:space="preserve">
<style type="text/css">
	.st0{fill:none;stroke:#000000;stroke-width:3;stroke-linecap:round;stroke-linejoin:round;stroke-miterlimit:10;}
</style>
<g>
	<path class="st0" d="M3,28.2h9.4c0.8,0,1.5-0.7,1.5-1.5V14.2c0-1.3-0.4-2.5-1.2-3.6l-1.6-2C10.5,7.9,10.2,7,10.2,6V2.6
		c0-0.6-0.5-1.1-1.1-1.1H6.3C5.6,1.5,5.1,2,5.1,2.6v3.5c0,0.9-0.3,1.8-0.8,2.5l-1.7,2.2c-0.7,1-1.1,2.2-1.1,3.4l0,12.5
		C1.5,27.5,2.2,28.2,3,28.2z"/>
	<line class="st0" x1="13.9" y1="14.9" x2="1.5" y2="14.9"/>
	<line class="st0" x1="1.5" y1="22" x2="13.9" y2="22"/>
</g>
</svg>
