<?xml version="1.0" encoding="utf-8"?>
<!-- Generator: Adobe Illustrator 27.5.0, SVG Export Plug-In . SVG Version: 6.00 Build 0)  -->
<svg version="1.1" id="Calque_3" xmlns="http://www.w3.org/2000/svg" xmlns:xlink="http://www.w3.org/1999/xlink" x="0px" y="0px"
viewBox="0 0 15.2 29.6" style="enable-background:new 0 0 15.2 29.6;" xml:space="preserve">
<path d="M14.3,11.2L12,6.7c-0.1-0.2-0.2-0.4-0.2-0.7V2.4c0-1.3-1.1-2.4-2.4-2.4H6.2C4.9,0,3.8,1.1,3.8,2.4v3.5
	c0,0.4-0.1,0.7-0.2,0.9l-2.4,4.1C0.5,12.1,0,13.6,0,15.3v11.5c0,1.5,1.2,2.8,2.7,2.8h9.9c1.4,0,2.7-1.3,2.7-2.8V15.3
	C15.3,13.7,15,12.4,14.3,11.2z M3,17.3h9.4v3.1H3V17.3z M3.8,12.3l2.4-4.1c0.4-0.7,0.6-1.4,0.6-2.4V3h2.1v3c0,0.8,0.2,1.6,0.6,2.2
	l2.3,4.4c0.3,0.5,0.5,1.1,0.6,1.7H3C3.2,13.6,3.4,12.9,3.8,12.3z M3,26.6v-3.4h9.4v3.4H3z"/>
</svg>
