<?xml version="1.0" encoding="utf-8"?>
<!-- Generator: Adobe Illustrator 27.5.0, SVG Export Plug-In . SVG Version: 6.00 Build 0)  -->
<svg version="1.1" id="Calque_3" xmlns="http://www.w3.org/2000/svg" xmlns:xlink="http://www.w3.org/1999/xlink" x="0px" y="0px"
	 viewBox="0 0 15.2 29.6" style="enable-background:new 0 0 15.2 29.6;" xml:space="preserve">
<style type="text/css">
	.st0{fill:none;stroke:#000000;stroke-width:2.9234;stroke-linecap:round;stroke-linejoin:round;}
</style>
<path class="st0" d="M6.2,1.5h3.2c0.5,0,0.9,0.4,0.9,0.9V6c0,0.5,0.1,1,0.4,1.5l2.3,4.4c0.6,1.1,0.8,2.2,0.8,3.4v11.5
	c0,0.7-0.6,1.3-1.2,1.3H2.7c-0.7,0-1.2-0.6-1.2-1.3V15.3c0-1.3,0.3-2.6,1-3.7l2.4-4.1c0.3-0.5,0.4-1,0.4-1.6V2.4
	C5.3,1.9,5.7,1.5,6.2,1.5C6.2,1.5,6.2,1.5,6.2,1.5z"/>
<line class="st0" x1="1.5" y1="15.8" x2="13.7" y2="15.8"/>
<line class="st0" x1="13.7" y1="21.8" x2="1.5" y2="21.8"/>
</svg>
